<svg width="44" height="44" viewBox="0 0 44 44" fill="none" xmlns="http://www.w3.org/2000/svg">
<path fill-rule="evenodd" clip-rule="evenodd" d="M31.08 17.0006C30.9072 16.7012 30.6598 16.4517 30.3618 16.2765C30.0639 16.1012 29.7256 16.0062 29.38 16.0006H16.58L16 13.7406C15.9414 13.5224 15.8107 13.3305 15.6291 13.1962C15.4475 13.0618 15.2258 12.9929 15 13.0006H13C12.7348 13.0006 12.4804 13.1059 12.2929 13.2935C12.1054 13.481 12 13.7354 12 14.0006C12 14.2658 12.1054 14.5202 12.2929 14.7077C12.4804 14.8952 12.7348 15.0006 13 15.0006H14.24L17 25.2606C17.0586 25.4787 17.1893 25.6706 17.3709 25.805C17.5525 25.9394 17.7742 26.0083 18 26.0006H27C27.1847 26 27.3656 25.9483 27.5227 25.8513C27.6798 25.7542 27.8069 25.6155 27.89 25.4506L31.17 18.8906C31.3122 18.5926 31.3783 18.2641 31.3626 17.9343C31.3469 17.6045 31.2498 17.2837 31.08 17.0006ZM17.5 31.0006C18.3284 31.0006 19 30.329 19 29.5006C19 28.6722 18.3284 28.0006 17.5 28.0006C16.6716 28.0006 16 28.6722 16 29.5006C16 30.329 16.6716 31.0006 17.5 31.0006ZM29 29.5006C29 30.329 28.3284 31.0006 27.5 31.0006C26.6716 31.0006 26 30.329 26 29.5006C26 28.6722 26.6716 28.0006 27.5 28.0006C28.3284 28.0006 29 28.6722 29 29.5006Z" fill="white"/>
</svg>
