<svg width="101" height="102" viewBox="0 0 100 100" fill="none" xmlns="http://www.w3.org/2000/svg">
<path d="M79.9695 51.8239C79.9695 55.3519 80.1159 58.8798 79.9351 62.3905C79.7027 66.6843 77.6971 70.1348 74.0043 72.3807C68.3833 75.7967 62.6849 79.0752 57.0123 82.4052C56.5045 82.6978 55.9794 82.9645 55.4285 83.1796C53.156 84.0487 51.0213 82.8268 50.7888 80.4089C50.6339 78.86 50.7286 77.2854 50.7372 75.7193C50.7544 70.0832 50.7544 64.4385 50.8319 58.8024C50.8921 54.4053 52.8547 50.8688 56.5131 48.5713C62.2804 44.9487 68.2112 41.5929 74.0817 38.1337C74.4175 37.9358 74.7876 37.7982 75.1577 37.6519C77.6798 36.6279 80.0212 38.1423 80.047 40.8873C80.09 44.5271 80.0556 48.1755 80.0556 51.8153C80.0298 51.8153 80.004 51.8153 79.9781 51.8153L79.9695 51.8239ZM56.6336 65.4366C56.6336 65.4366 56.625 65.4366 56.6164 65.4366C56.6164 68.216 56.6164 70.9953 56.6164 73.7746C56.6164 75.0653 57.0898 75.3321 58.2088 74.6695C62.8313 71.9504 67.4451 69.2227 72.0675 66.5122C73.4448 65.7034 74.099 64.5848 74.0904 62.9498C74.0473 57.787 74.0731 52.6155 74.0731 47.4441C74.0731 47.1687 74.0903 46.8934 74.0473 46.6266C73.9182 45.7662 73.4534 45.4478 72.6442 45.8694C72.0159 46.1878 71.4219 46.5664 70.8194 46.9278C66.7737 49.3027 62.728 51.7034 58.6737 54.0611C57.262 54.8872 56.5389 55.9714 56.6078 57.6837C56.7197 60.2652 56.6336 62.8466 56.6336 65.4366Z" fill="white"/>
<path d="M49.0406 68.7238C49.0406 71.7441 49.0406 74.7558 49.0406 77.776C49.0406 78.2493 49.0492 78.7139 49.0234 79.1872C48.8168 83.0593 46.2947 84.4447 42.9204 82.5C39.2276 80.3661 35.5607 78.1632 31.8851 75.9862C29.7245 74.7127 27.5553 73.4564 25.4292 72.1313C21.8741 69.9113 19.9202 66.6587 19.8255 62.494C19.6705 55.4811 19.6619 48.4682 19.6619 41.4554C19.6619 37.5832 22.4164 36.0946 25.7993 38.0909C30.2496 40.724 34.6741 43.4 39.1071 46.0589C40.1142 46.6612 41.1386 47.2464 42.1457 47.8573C46.6906 50.585 49.0234 54.5432 48.9029 59.904C48.834 62.8382 48.8943 65.781 48.8943 68.7152H49.0578L49.0406 68.7238ZM43.0667 65.3077C43.0667 62.6489 43.0151 59.9814 43.0839 57.3225C43.127 55.8425 42.4728 54.8358 41.2935 54.1302C36.6883 51.3853 32.0745 48.6661 27.4434 45.9557C26.2125 45.2329 25.7133 45.5426 25.7133 46.9366C25.7133 52.3748 25.7305 57.8216 25.7047 63.2598C25.7047 64.628 26.2814 65.5831 27.409 66.2543C32.0573 69.0078 36.7055 71.7527 41.3624 74.4804C42.6622 75.2462 43.0667 74.9709 43.0667 73.4134C43.0667 70.7115 43.0667 68.0096 43.0667 65.3077Z" fill="white"/>
<path d="M49.574 48.1755C46.7506 48.4939 44.2715 47.0311 41.7839 45.5941C36.8688 42.7545 31.9364 39.9494 27.0214 37.1098C26.3155 36.6968 25.5924 36.2666 24.9985 35.7159C23.3458 34.21 23.3028 32.3084 24.9813 30.837C25.9712 29.9765 27.1505 29.3053 28.2953 28.6427C33.4514 25.6655 38.5817 22.6452 43.7981 19.7971C47.6716 17.6889 51.7862 17.6373 55.6425 19.7196C61.4959 22.8776 67.2029 26.3195 72.9702 29.6323C73.0046 29.6495 73.039 29.6753 73.0735 29.6925C76.5511 31.9126 76.5252 34.7177 72.953 36.8173C67.1771 40.1989 61.3754 43.5376 55.5823 46.8934C53.8005 47.926 51.8378 48.2186 49.5826 48.1841L49.574 48.1755ZM49.7461 42.9611C50.3573 42.7717 50.9254 42.6943 51.3816 42.4276C56.116 39.7429 60.8417 37.041 65.5588 34.3133C66.8242 33.5819 66.7983 32.8074 65.5244 32.076C60.8417 29.3828 56.1332 26.7239 51.4591 24.0134C50.3487 23.368 49.3674 23.3852 48.2656 24.022C43.5571 26.7497 38.8141 29.4258 34.0884 32.1277C32.7112 32.9193 32.7284 33.4958 34.1831 34.3305C38.8055 36.9808 43.428 39.631 48.059 42.2555C48.5927 42.5566 49.1952 42.7373 49.7461 42.9611Z" fill="white"/>
<path d="M14.6769 15.6666C-5.23264 35.6126 -4.55675 67.0263 14.7006 86.3567L14.7067 86.3628C29.6204 101.107 51.8279 105.225 70.7821 96.4783L69.8429 92.9732C52.5968 101.116 31.4958 98.0045 17.1925 83.8818C-0.655769 65.8714 -1.33074 36.7608 17.1046 18.2282C35.669 -0.433603 64.2832 0.559252 81.8006 17.0419C97.0877 31.4252 100.142 52.9022 92.3438 70.1506L96.0355 71.1398C98.7446 64.9226 100.079 58.1131 100.027 50.8744C99.92 36.476 94.579 24.2206 84.0771 14.3517C65.142 -3.41479 34.4891 -4.16994 14.6769 15.6666Z" fill="white">
	<animateTransform attributeName="transform" begin="0s" dur="3s" type="rotate" from="0 50 50" to="360 50 50" repeatCount="indefinite" />
</path>
</svg>
