<svg width="24" height="24" viewBox="0 0 24 24" fill="none" xmlns="http://www.w3.org/2000/svg">
<path fill-rule="evenodd" clip-rule="evenodd" d="M18.3039 5.61584C16.6199 3.92988 14.3803 3.00099 11.9944 3C7.07802 3 3.07679 7.00111 3.07482 11.9188C3.07416 13.4908 3.48483 15.0254 4.26541 16.3781L3 21L7.72841 19.7596C9.03128 20.4703 10.4981 20.8449 11.9908 20.8453H11.9945C16.9104 20.8453 20.912 16.8439 20.9139 11.926C20.9149 9.54258 19.988 7.3017 18.3039 5.61584ZM11.9944 19.339H11.9913C10.6611 19.3384 9.35648 18.9809 8.21807 18.3056L7.94748 18.1449L5.14157 18.881L5.89051 16.1453L5.71418 15.8648C4.97205 14.6844 4.58017 13.3201 4.58083 11.9194C4.58236 7.8319 7.90815 4.50645 11.9974 4.50645C13.9776 4.5071 15.839 5.27922 17.2386 6.68053C18.6383 8.08184 19.4087 9.94446 19.408 11.9254C19.4062 16.0132 16.0807 19.339 11.9944 19.339ZM16.0609 13.7866C15.8381 13.675 14.7423 13.136 14.538 13.0615C14.3338 12.9871 14.1851 12.9501 14.0367 13.1731C13.888 13.3961 13.461 13.8982 13.3309 14.0469C13.2008 14.1956 13.071 14.2143 12.8481 14.1027C12.6251 13.9912 11.9071 13.7557 11.0557 12.9965C10.3933 12.4055 9.94601 11.6757 9.81593 11.4527C9.68607 11.2294 9.81483 11.1204 9.91371 10.9978C10.155 10.6982 10.3966 10.3841 10.4708 10.2355C10.5452 10.0867 10.508 9.95654 10.4521 9.84503C10.3966 9.73352 9.95084 8.63654 9.76517 8.19016C9.58412 7.75576 9.40054 7.81443 9.26365 7.80762C9.13379 7.80114 8.98514 7.79982 8.8365 7.79982C8.68796 7.79982 8.44648 7.85552 8.24214 8.07876C8.0379 8.30189 7.46221 8.84099 7.46221 9.93798C7.46221 11.035 8.26081 12.0947 8.37221 12.2435C8.48361 12.3922 9.94381 14.6433 12.1794 15.6086C12.7112 15.8384 13.1262 15.9754 13.45 16.0781C13.9839 16.2478 14.4696 16.2238 14.8537 16.1665C15.282 16.1024 16.1722 15.6272 16.3581 15.1067C16.5437 14.5861 16.5437 14.1399 16.4879 14.0469C16.4323 13.9539 16.2837 13.8982 16.0609 13.7866Z" fill="#ffffff"/>
</svg>
